# xmcd
#
# Track frame offsets:
#	150
#	20630
#	52510
#	71245
#	86460
#	107525
#	129092
#	146202
#	168197
#	195572
#	206502
#	219070
#	240285
#	259707
#	271285
#	288787
#	305780
#
# Disc length: 4381 seconds
#
# Revision: 4
# Processed by: cddbd v1.5.2PL0 Copyright (c) Steve Scherf et al.
# Submitted via: audiograbber 1.83.01
#
DISCID=e4111b11
DTITLE=Nina Simone - The Gold Collection - Classsic Performances [CD1)
DYEAR=1997
DGENRE=Pop
TTITLE0=My Baby Just Cares for Me
TTITLE1=House of the Rising Sun
TTITLE2=See Line Woman
TTITLE3=To Love Somebody
TTITLE4=Just in Time
TTITLE5=When I Was a Young Girl
TTITLE6=Please Don't Let Me Be Misunderstood
TTITLE7=The Way I Love
TTITLE8=Gin House Blues
TTITLE9=One More Sunday in Savannah
TTITLE10=I'll Look Around
TTITLE11=Blues
TTITLE12=When I Was in My Prime
TTITLE13=Zungo
TTITLE14=For All We Know
TTITLE15=Cotton-Eyed Joe
TTITLE16=Nobody
EXTD=
EXTT0=
EXTT1=
EXTT2=
EXTT3=
EXTT4=
EXTT5=
EXTT6=
EXTT7=
EXTT8=
EXTT9=
EXTT10=
EXTT11=
EXTT12=
EXTT13=
EXTT14=
EXTT15=
EXTT16=
PLAYORDER=
